/* XPM */
static char * v_xpm[] = {
"128 128 2 1",
" 	c None",
".	c #E31021",
"                                                                                                                                ",
"                                                                                                                                ",
"                                                                                                                                ",
"                                                                                                                                ",
"                                                                                                                                ",
"                                                                                                                                ",
"                                                                                                                                ",
"                                                                                                                                ",
"                                                                                                                                ",
".....................                                                        ...................                                ",
" ....................                                                       ....................                                ",
" .....................                                                      ....................                                ",
" .....................                                                      ...................                                 ",
"  ....................                                                     ....................                                 ",
"  .....................                                                    ...................                                  ",
"   ....................                                                    ...................                                  ",
"   ....................                                                   ...................                                   ",
"    ....................                                                  ...................                                   ",
"    ....................                                                 ....................                                   ",
"    .....................                                                ...................                                    ",
"     ....................                                                ...................                                    ",
"     ....................                                               ...................                                     ",
"      ....................                                              ...................                                     ",
"      ....................                                             ....................                                     ",
"      ....................                                             ...................                                      ",
"       ....................                                            ...................                                      ",
"       ....................                                           ...................                                       ",
"        ...................                                           ...................                                       ",
"        ....................                                          ..................                                        ",
"         ...................                                         ...................                                        ",
"         ....................                                        ...................                                        ",
"         ....................                                       ...................                                         ",
"          ...................                                       ...................                                         ",
"          ....................                                      ..................                                          ",
"           ...................                                     ...................                                          ",
"           ...................                                     ..................                                           ",
"           ....................                                   ...................                                           ",
"            ...................                                   ..................                                            ",
"            ....................                                  ..................                                            ",
"             ...................                                 ...................                                            ",
"             ...................                                 ..................                                             ",
"              ...................                                ..................                                             ",
"              ...................                               ..................                                              ",
"              ....................                              ..................                                              ",
"               ...................                             ..................                                               ",
"               ...................                             ..................                                               ",
"                ...................                            ..................                                               ",
"                ...................                           ..................                                                ",
"                 ..................                           ..................                                                ",
"                 ...................                         ..................                                                 ",
"                 ...................                         ..................                                                 ",
"                  ...................                        .................                                                  ",
"                  ...................                       ..................                                                  ",
"                   ..................                       ..................                                                  ",
"                   ...................                      .................                                                   ",
"                   ...................                     ..................                                                   ",
"                    ..................                     .................                                                    ",
"                    ...................                   ..................                                                    ",
"                     ..................                   .................                                                     ",
"                     ...................                  .................                                                     ",
"                      ..................                 ..................                                                     ",
"                      ..................                 .................                                                      ",
"                      ...................                .................                                                      ",
"                       ..................               .................                                                       ",
"                       ...................              .................                                                       ",
"                        ..................             ..................                                                       ",
"                        ..................             .................                                                        ",
"                        ...................            .................                                                        ",
"                         ..................           .................                                                         ",
"                         ..................           .................                                                         ",
"                          ..................         .................                                                          ",
"                          ..................         .................                                                          ",
"                           .................         .................                                                          ",
"                           ..................       .................                                                           ",
"                           ..................       .................                                                           ",
"                            ..................      ................                                                            ",
"                            ..................     .................                                                            ",
"                             .................     ................                                                             ",
"                             ..................   .................                                                             ",
"                             ..................   ................                                                              ",
"                              .................   ................                                                              ",
"                              .................. .................                                                              ",
"                               ................. ................                                                               ",
"                               ..................................                                                               ",
"                                ................................                                                                ",
"                                ................................                                                                ",
"                                ...............................                                                                 ",
"                                 ..............................                                                                 ",
"                                 ..............................                                                                 ",
"                                  ............................                                                .......           ",
"                                  ............................                                             ............         ",
"                                  ...........................                                            ................       ",
"                                   ..........................                                           ...................     ",
"                                   .........................                                           .....................    ",
"                                    ........................                                          .......................   ",
"                                    ........................                                         ........................   ",
"                                     ......................                                         ..........................  ",
"                                     ......................                                         ........................... ",
"                                     .....................                                         ............................ ",
"                                      ....................                                         ............................ ",
"                                      ....................                                         .............................",
"                                       ..................                                          .............................",
"                                       ..................                                         ..............................",
"                                        ................                                          ..............................",
"                                        ................                                          ..............................",
"                                        ...............                                           ..............................",
"                                         ..............                                            .............................",
"                                         ..............                                            .............................",
"                                          ............                                             ............................ ",
"                                          ............                                             ............................ ",
"                                          ...........                                               ........................... ",
"                                           ..........                                               ..........................  ",
"                                           .........                                                 ........................   ",
"                                            ........                                                  .......................   ",
"                                            ........                                                   .....................    ",
"                                             ......                                                     ...................     ",
"                                             ......                                                      ................       ",
"                                                                                                           .............        ",
"                                                                                                             ........           ",
"                                                                                                                                ",
"                                                                                                                                ",
"                                                                                                                                ",
"                                                                                                                                ",
"                                                                                                                                ",
"                                                                                                                                ",
"                                                                                                                                ",
"                                                                                                                                ",
"                                                                                                                                "};
