/* XPM */
static char * v_xpm[] = {
"128 128 12 1",
" 	c None",
".	c #BF0007",
"+	c #BE0008",
"@	c #BE0007",
"#	c #BF0008",
"$	c #BD0007",
"%	c #BD0008",
"&	c #BE0006",
"*	c #C00007",
"=	c #BD0006",
"-	c #BF0006",
";	c #C00008",
"                                                                                                                                ",
"                                                                                                                                ",
"                                                                                                                                ",
"                                                                                                                                ",
"                                                                                                                                ",
"           .+.@...................                                                             +@..................+            ",
"           #@#...................@+                                                           @@$................@$#            ",
"            #@#+################+@@                                                           @@#+##############+#@.            ",
"            +.+#################@+@                                                          %$#+################+@%            ",
"             &@#+#################&.                                                         *@#################@..             ",
"             $@.+################@+@                                                         @+@##############+#+@+             ",
"              @##+##############+#@.@                                                       +.#################@+@              ",
"              #@#################+#$$                                                       $$#+###############+=.              ",
"              +.#.################+@.                                                      @@@+###############@+@               ",
"               .@+################@+@@                                                     $$#+##############+#@.               ",
"               %$#+################+@.                                                     .@+##############+#@@+               ",
"                @@#+###############@+@                                                    #@#.###############@@@                ",
"                ##@###############+#+.@                                                   %.#################+&@                ",
"                 =+#+##############+#@$                                                   &+#+##############@+@                 ",
"                 $+.+################@..                                                 .@+################+@#                 ",
"                 #@#.###############++$@                                                 @@#+#############++$+                  ",
"                  +@#+###############+@.                                                %@#+###############+@.                  ",
"                  #.+################@+@+                                               $@#+#############+#@@                   ",
"                   &@#+###############@+@                                               @+@###############+@@                   ",
"                   $+.+##############+#+=                                              .=#################+=@                   ",
"                   #@##################+..                                             .@+###############@%@                    ",
"                    #@################+#@@                                            #@##+##############+.#                    ",
"                    +.+#################@@                                            $@.+#############+#@.                     ",
"                     &@+################+.+                                           -@#+##############++%                     ",
"                     $@#+###############@+@                                          #@+##############+#+&                      ",
"                      @+#+###############+=.                                         +.#+##############@%@                      ",
"                      .@+################@+@                                         =+###############@+.#                      ",
"                      @=+###############+#@.+                                       @@++#############++@#                       ",
"                       $#@################+@$                                       $@.+##############+@%                       ",
"                       #@#+###############+@@                                       @@+#############+#$&                        ",
"                        @@#+##############@+@+                                     ..#+##############@@@                        ",
"                        ##@#################@*                                     +.#+############+#+@#                        ",
"                         &+#+##############@+@                                    @$################+@#                         ",
"                         $+.+#############+#+.+                                   .@++#############@+.%                         ",
"                         #@#.##############+#$$                                  #@##+############++$&                          ",
"                          .@+################@@                                  $+.+##############+@%                          ",
"                          @$#+###############+@+                                 =@#+############+#@@                           ",
"                          +@@#+###############@.                                +++#############+#+@#                           ",
"                           .@.+##############@+@%                               @@#+#############@+.                            ",
"                           #@##+##############+@+                               .@+##############+$.                            ",
"                            .@+##############+#+$                              #.###############@+@%                            ",
"                            @$#################+@.                             $+.+############+#@@                             ",
"                             @#@###############.$$                            -&##+#############%+.                             ",
"                             .@#+###############@.                            @#@##############@+@                              ",
"                              @@#+##############+@+                           @@#+#############+$@                              ",
"                              .@+###############@+@                          @$#+#############.+@                               ",
"                              @=+################+=@                         @@+#############++@#                               ",
"                               $+.###############+@.                         @+.##############+@#                               ",
"                               #@#+#############+#@$                        .@++#############@@@                                ",
"                                @@+###############@@@                       @#.+#############%@@                                ",
"                                @$#+##############+@@                      @@+#+###########+#+$                                 ",
"                                +@+#+##############+@%                     @$#+#############+@#                                 ",
"                                 .+.+##############+@$                     .@+#############@+.#                                 ",
"                                 #@################+@;                    #@##############+#@.                                  ",
"                                  .@+###############+=                    $+.##############$@$                                  ",
"                                  @$#+##############+@@                  &=+#############+#$@                                   ",
"                                  +@@#+############+#@.                  @+@############+#+@+                                   ",
"                                   ...+##############+@+                 @@#+############@+.                                    ",
"                                   .@++#############+#@$                ..@###############@+                                    ",
"                                    $+.+#############@+.                @@#+############+$@                                     ",
"                                    +.################+=.              %$#@############+#$@                                     ",
"                                     @+@##############+$@              *$###############%@@                                     ",
"                                     ..#+############+#+.+             @#@#############@@.                                      ",
"                                      @@+##############@@$            +@+#+############+@+                                      ",
"                                      $$.+##############@-            $$;+############+$+                                       ",
"                                      +.################+@%           @@+############++$@                                       ",
"                                       .+.#############++@#          +$#+#############%@%                                       ",
"                                       +.#+##############+=@         .@+#############@@.                                        ",
"                                        @@+##############+@.        #@#@###########+#+@+                                        ",
"                                        @$#+#############@+@        +.##############@+@                                         ",
"                                        +@+#+#############+@.       @+#+############+=@                                         ",
"                                         @#@##############@@@      .@+#############@+@                                          ",
"                                         .@#+############+#@#      @@.+###########+#@.                                          ",
"                                          $+.#############++$$    %@#+###########+#@@                                           ",
"                                          +.#+#############+@.    .@#+############@+@                                           ",
"                                          #+@#+#############+=    @+@###########+#+&-                                           ",
"                                           ...+#############+$.  #.##############@%@                                            ",
"                                           .@++#############@@=  @@.+############+@#                                            ",
"                                            $+.+#############+#.@.++###########++$+                                             ",
"                                            +.##############+##...+#############+@@                                             ",
"                                             @+@##############.+++.+############$&                                              ",
"                                             ..#+#############+###+############@$@                                              ",
"                                              @@+##############################+@+                                              ",
"                                              $$#+############################@%.                                               ",
"                                              +.##############################+.+                                               ",
"                                               @+@############################$@                                                ",
"                                               .@############################+$$                                                ",
"                                               %@#+########################+#+@+                                                ",
"                                                @@#+########################@+.                                                 ",
"                                                #@+#+######################@+.+                                                 ",
"                                                 .#@#######################+$.                                                  ",
"                                                 .@#+#####################++$@                                                  ",
"                                                  $+.####################+#@@                                                   ",
"                                                  +@#+####################@@.                                                   ",
"                                                  @.@####################@+.                                                    ",
"                                                   @@#+##################+$@                                                    ",
"                                                   $+.+##################+=@                                                    ",
"                                                    @+.+###############++$+                                                     ",
"                                                    #@##################+@.                                                     ",
"                                                     .+@##############+#@.                                                      ",
"                                                     @@#+##############+@@                                                      ",
"                                                     %@#+############+#+=                                                       ",
"                                                      @@#+############@%@                                                       ",
"                                                      #@##+##########@+.#                                                       ",
"                                                       .+@##########+#@.                                                        ",
"                                                       .@############$@$                                                        ",
"                                                       %@#@########+#$&                                                         ",
"                                                        @@#+########@%@                                                         ",
"                                                        ..@########@+.#                                                         ",
"                                                         &@#+#####++@#                                                          ",
"                                                         $+.+######%@%                                                          ",
"                                                         #.#.####+#$@                                                           ",
"                                                          #@#+####@@@                                                           ",
"                                                          +#+###+#+@                                                            ",
"                                                           @@#+##+@+                                                            ",
"                                                           $@.##@+.                                                             ",
"                                                            @%@@@@@                                                             ",
"                                                            @#...@                                                              ",
"                                                                                                                                ",
"                                                                                                                                ",
"                                                                                                                                ",
"                                                                                                                                ",
"                                                                                                                                "};
